<svg width="189" height="250" viewBox="0 0 189 250" fill="none" xmlns="http://www.w3.org/2000/svg">
<path d="M152.009 57.509C152.009 42.2566 145.95 27.629 135.165 16.844C124.38 6.05896 109.753 0 94.5002 0C79.2479 0 64.6202 6.05896 53.8352 16.844C43.0502 27.629 36.9912 42.2566 36.9912 57.509C36.9912 89.2639 94.5002 169.558 94.5002 169.558C94.5002 169.558 152.009 89.2639 152.009 57.509ZM56.9943 57.509C56.9943 50.091 59.194 42.8396 63.3152 36.6718C67.4364 30.504 73.294 25.6968 80.1473 22.8581C87.0006 20.0194 94.5418 19.2766 101.817 20.7238C109.093 22.171 115.776 25.743 121.021 30.9883C126.266 36.2336 129.838 42.9165 131.285 50.1919C132.733 57.4674 131.99 65.0085 129.151 71.8618C126.312 78.7151 121.505 84.5728 115.337 88.694C109.17 92.8152 101.918 95.0148 94.5002 95.0148C84.553 95.0148 75.0133 91.0633 67.9795 84.0296C60.9458 76.9959 56.9943 67.4561 56.9943 57.509Z" fill="#34A853"/>
<path d="M123.442 134.365C119.129 141.397 114.941 147.898 111.253 153.461C126.88 155.587 137.819 160.588 137.819 166.464C137.819 174.215 118.441 180.528 94.5 180.528C70.5588 180.528 51.1808 174.277 51.1808 166.464C51.1808 160.556 62.1825 155.556 77.7787 153.461C74.0906 147.898 69.9024 141.366 65.5893 134.333C27.7709 138.615 0.454102 151.305 0.454102 166.338C0.454102 184.935 42.5544 200 94.5 200C146.446 200 188.546 184.935 188.546 166.338C188.546 151.305 161.229 138.615 123.442 134.365Z" fill="#34A853"/>
<path d="M92 85H87C86.6307 84.9976 86.2666 84.9133 85.9337 84.7534C85.6009 84.5935 85.3076 84.3618 85.075 84.075C84.8306 83.7938 84.6521 83.4616 84.5527 83.1026C84.4532 82.7436 84.4352 82.3669 84.5 82L87.95 65H79.5C79.0409 65.001 78.5905 64.8755 78.198 64.6374C77.8055 64.3992 77.4862 64.0576 77.275 63.65C77.0816 63.2548 76.9959 62.8155 77.0266 62.3765C77.0573 61.9375 77.2034 61.5144 77.45 61.15L94.95 36.15C95.1712 35.8049 95.4739 35.5196 95.8314 35.319C96.1889 35.1185 96.5902 35.0089 97 35H102C102.369 35.0024 102.733 35.0867 103.066 35.2466C103.399 35.4065 103.692 35.6382 103.925 35.925C104.169 36.2062 104.348 36.5384 104.447 36.8974C104.547 37.2564 104.565 37.6331 104.5 38L101.05 55H109.5C109.959 54.999 110.41 55.1245 110.802 55.3626C111.194 55.6008 111.514 55.9424 111.725 56.35C111.918 56.7452 112.004 57.1845 111.973 57.6235C111.943 58.0625 111.797 58.4856 111.55 58.85L94.05 83.85C93.8288 84.1951 93.5261 84.4804 93.1686 84.681C92.8111 84.8815 92.4098 84.9911 92 85ZM90.05 80H90.7L104.7 60H98C97.6307 59.9976 97.2666 59.9133 96.9337 59.7534C96.6009 59.5935 96.3076 59.3618 96.075 59.075C95.8393 58.7896 95.67 58.4554 95.5792 58.0965C95.4884 57.7377 95.4784 57.3632 95.55 57L98.95 40H98.3L84.3 60H91C91.3693 60.0024 91.7334 60.0867 92.0662 60.2466C92.3991 60.4065 92.6924 60.6382 92.925 60.925C93.1607 61.2104 93.33 61.5446 93.4208 61.9035C93.5116 62.2623 93.5216 62.6368 93.45 63L90.05 80Z" fill="#34A853"/>
<path d="M29.2557 243.1C28.8557 243.1 28.4307 243.067 27.9807 243C27.5307 242.917 27.1057 242.758 26.7057 242.525C26.3057 242.292 25.9807 241.942 25.7307 241.475C25.4807 240.992 25.3557 240.342 25.3557 239.525V228.3C25.3557 227.583 25.4557 226.992 25.6557 226.525C25.8723 226.042 26.1557 225.667 26.5057 225.4C26.8557 225.117 27.2473 224.917 27.6807 224.8C28.114 224.667 28.5473 224.6 28.9807 224.6C30.014 224.617 30.9723 224.642 31.8557 224.675C32.739 224.692 33.5723 224.717 34.3557 224.75C35.1557 224.767 35.9307 224.792 36.6807 224.825V226.425H29.4807C28.8307 226.425 28.314 226.6 27.9307 226.95C27.5473 227.3 27.3557 227.858 27.3557 228.625V232.975L35.5807 233.1V234.625L27.3557 234.75V239.075C27.3557 239.692 27.4557 240.158 27.6557 240.475C27.8723 240.792 28.1557 241 28.5057 241.1C28.8557 241.2 29.214 241.25 29.5807 241.25H36.6807V242.85C35.914 242.9 35.1057 242.942 34.2557 242.975C33.4223 243.008 32.5807 243.033 31.7307 243.05C30.8973 243.067 30.0723 243.083 29.2557 243.1ZM45.2535 243L38.9535 224.6H41.0035L46.5535 240.925L52.0785 224.6H54.1035L47.8035 243H45.2535ZM69.6375 243.15C68.5375 243.15 67.5792 243.025 66.7625 242.775C65.9458 242.525 65.2708 242.075 64.7375 241.425C64.2042 240.758 63.8042 239.808 63.5375 238.575C63.2875 237.342 63.1625 235.733 63.1625 233.75C63.1625 231.883 63.2958 230.35 63.5625 229.15C63.8292 227.933 64.2292 226.983 64.7625 226.3C65.3125 225.617 66.0042 225.142 66.8375 224.875C67.6708 224.592 68.6542 224.45 69.7875 224.45C70.3042 224.45 70.8792 224.483 71.5125 224.55C72.1458 224.617 72.7708 224.7 73.3875 224.8C74.0042 224.883 74.5625 224.992 75.0625 225.125V226.6C74.7792 226.55 74.3792 226.5 73.8625 226.45C73.3458 226.4 72.7542 226.358 72.0875 226.325C71.4375 226.275 70.7708 226.25 70.0875 226.25C69.2042 226.25 68.4458 226.35 67.8125 226.55C67.1792 226.75 66.6625 227.125 66.2625 227.675C65.8792 228.208 65.5958 228.967 65.4125 229.95C65.2292 230.933 65.1375 232.208 65.1375 233.775C65.1375 235.358 65.2208 236.658 65.3875 237.675C65.5708 238.675 65.8542 239.442 66.2375 239.975C66.6208 240.508 67.1208 240.875 67.7375 241.075C68.3542 241.275 69.1208 241.375 70.0375 241.375C71.2875 241.375 72.3125 241.342 73.1125 241.275C73.9125 241.208 74.5625 241.133 75.0625 241.05V242.55C74.5625 242.667 74.0042 242.775 73.3875 242.875C72.7875 242.958 72.1625 243.025 71.5125 243.075C70.8792 243.125 70.2542 243.15 69.6375 243.15ZM78.1139 243V223.925H80.0889V231.125C80.7055 230.675 81.4389 230.283 82.2889 229.95C83.1555 229.6 84.0555 229.425 84.9889 229.425C85.9222 229.425 86.6889 229.625 87.2889 230.025C87.9055 230.425 88.3555 230.967 88.6389 231.65C88.9389 232.333 89.0889 233.092 89.0889 233.925V243H87.1139V234.125C87.1139 233.558 86.9972 233.058 86.7639 232.625C86.5472 232.192 86.2305 231.85 85.8139 231.6C85.3972 231.35 84.8972 231.225 84.3139 231.225C83.7639 231.225 83.2555 231.283 82.7889 231.4C82.3222 231.5 81.8722 231.65 81.4389 231.85C81.0055 232.033 80.5555 232.258 80.0889 232.525V243H78.1139ZM95.4111 243.15C94.4278 243.15 93.6195 242.858 92.9861 242.275C92.3528 241.692 92.0361 240.867 92.0361 239.8V238.85C92.0361 237.8 92.3778 236.95 93.0611 236.3C93.7611 235.65 94.8111 235.325 96.2111 235.325H100.736V233.675C100.736 233.125 100.636 232.658 100.436 232.275C100.253 231.875 99.9111 231.567 99.4111 231.35C98.9278 231.133 98.2195 231.025 97.2861 231.025H93.1361V229.85C93.7195 229.75 94.3945 229.658 95.1611 229.575C95.9445 229.492 96.8611 229.45 97.9111 229.45C98.9945 229.433 99.8945 229.567 100.611 229.85C101.328 230.133 101.853 230.583 102.186 231.2C102.536 231.8 102.711 232.592 102.711 233.575V243H101.186L100.811 241.475C100.744 241.542 100.536 241.658 100.186 241.825C99.8528 241.992 99.4195 242.183 98.8861 242.4C98.3695 242.6 97.8028 242.775 97.1861 242.925C96.5861 243.075 95.9945 243.15 95.4111 243.15ZM96.2361 241.675C96.5361 241.692 96.8778 241.658 97.2611 241.575C97.6445 241.492 98.0361 241.4 98.4361 241.3C98.8361 241.183 99.2028 241.067 99.5361 240.95C99.8861 240.833 100.169 240.733 100.386 240.65C100.603 240.567 100.719 240.525 100.736 240.525V236.325L96.6611 236.5C95.7111 236.533 95.0278 236.767 94.6111 237.2C94.2111 237.633 94.0111 238.192 94.0111 238.875V239.475C94.0111 240.008 94.1195 240.442 94.3361 240.775C94.5695 241.092 94.8528 241.317 95.1861 241.45C95.5361 241.583 95.8861 241.658 96.2361 241.675ZM106.434 243V229.65H107.934L108.409 231.975C109.009 231.258 109.676 230.667 110.409 230.2C111.159 229.733 112.018 229.5 112.984 229.5C113.218 229.5 113.434 229.508 113.634 229.525C113.851 229.542 114.051 229.575 114.234 229.625V231.65C114.018 231.617 113.784 231.592 113.534 231.575C113.284 231.542 113.034 231.525 112.784 231.525C112.168 231.525 111.618 231.6 111.134 231.75C110.651 231.9 110.193 232.125 109.759 232.425C109.326 232.725 108.876 233.092 108.409 233.525V243H106.434ZM120.012 249.125C119.145 249.125 118.379 249 117.712 248.75C117.062 248.517 116.545 248.15 116.162 247.65C115.795 247.167 115.612 246.558 115.612 245.825V245.225C115.612 244.458 115.82 243.817 116.237 243.3C116.67 242.783 117.212 242.4 117.862 242.15C118.512 241.883 119.179 241.75 119.862 241.75L120.362 242.55C119.862 242.55 119.395 242.633 118.962 242.8C118.529 242.95 118.17 243.2 117.887 243.55C117.62 243.9 117.487 244.35 117.487 244.9V245.45C117.487 246.25 117.754 246.817 118.287 247.15C118.82 247.5 119.545 247.675 120.462 247.675H123.562C124.562 247.675 125.345 247.483 125.912 247.1C126.495 246.717 126.787 246.117 126.787 245.3V244.8C126.787 244.333 126.695 243.933 126.512 243.6C126.329 243.267 126.02 243.008 125.587 242.825C125.17 242.642 124.579 242.55 123.812 242.55H119.787C118.754 242.55 117.945 242.333 117.362 241.9C116.795 241.45 116.512 240.875 116.512 240.175C116.512 239.508 116.704 238.983 117.087 238.6C117.487 238.217 118.045 237.95 118.762 237.8C118.145 237.55 117.662 237.217 117.312 236.8C116.962 236.367 116.72 235.908 116.587 235.425C116.454 234.925 116.387 234.425 116.387 233.925C116.387 232.892 116.595 232.058 117.012 231.425C117.429 230.792 118.02 230.333 118.787 230.05C119.57 229.767 120.487 229.625 121.537 229.625H128.662V230.75L125.662 231C125.879 231.15 126.12 231.35 126.387 231.6C126.654 231.833 126.879 232.175 127.062 232.625C127.262 233.058 127.362 233.658 127.362 234.425C127.362 235.108 127.212 235.758 126.912 236.375C126.629 236.992 126.145 237.5 125.462 237.9C124.779 238.283 123.837 238.475 122.637 238.475H120.512C119.812 238.475 119.254 238.583 118.837 238.8C118.437 239 118.237 239.367 118.237 239.9C118.237 240.3 118.387 240.583 118.687 240.75C118.987 240.917 119.304 241 119.637 241H124.062C125.095 241 125.945 241.133 126.612 241.4C127.295 241.667 127.804 242.075 128.137 242.625C128.487 243.158 128.662 243.842 128.662 244.675V245.225C128.662 246.442 128.245 247.392 127.412 248.075C126.595 248.775 125.37 249.125 123.737 249.125H120.012ZM120.937 236.95H122.437C123.287 236.95 123.929 236.825 124.362 236.575C124.812 236.308 125.12 235.967 125.287 235.55C125.454 235.133 125.537 234.683 125.537 234.2C125.537 233.45 125.412 232.858 125.162 232.425C124.929 231.975 124.595 231.658 124.162 231.475C123.729 231.275 123.229 231.175 122.662 231.175H121.237C120.287 231.175 119.537 231.392 118.987 231.825C118.454 232.242 118.187 232.975 118.187 234.025C118.187 235.058 118.429 235.808 118.912 236.275C119.412 236.725 120.087 236.95 120.937 236.95ZM136.241 243.15C134.841 243.15 133.733 242.942 132.916 242.525C132.116 242.108 131.541 241.4 131.191 240.4C130.841 239.4 130.666 238.033 130.666 236.3C130.666 234.533 130.841 233.158 131.191 232.175C131.558 231.175 132.15 230.475 132.966 230.075C133.783 229.675 134.883 229.475 136.266 229.475C137.45 229.475 138.408 229.608 139.141 229.875C139.891 230.142 140.441 230.6 140.791 231.25C141.158 231.883 141.341 232.767 141.341 233.9C141.341 234.683 141.183 235.317 140.866 235.8C140.566 236.267 140.125 236.608 139.541 236.825C138.975 237.025 138.3 237.125 137.516 237.125H132.641C132.658 238.208 132.775 239.083 132.991 239.75C133.208 240.4 133.6 240.875 134.166 241.175C134.75 241.458 135.6 241.6 136.716 241.6H141.016V242.8C140.25 242.9 139.5 242.983 138.766 243.05C138.033 243.117 137.191 243.15 136.241 243.15ZM132.616 235.825H137.366C138.116 235.825 138.666 235.692 139.016 235.425C139.383 235.142 139.566 234.642 139.566 233.925C139.566 233.158 139.45 232.567 139.216 232.15C139 231.717 138.65 231.417 138.166 231.25C137.7 231.067 137.066 230.975 136.266 230.975C135.333 230.975 134.6 231.117 134.066 231.4C133.533 231.667 133.158 232.15 132.941 232.85C132.725 233.55 132.616 234.542 132.616 235.825ZM144.667 243V229.65H146.167L146.642 231.975C147.242 231.258 147.908 230.667 148.642 230.2C149.392 229.733 150.25 229.5 151.217 229.5C151.45 229.5 151.667 229.508 151.867 229.525C152.083 229.542 152.283 229.575 152.467 229.625V231.65C152.25 231.617 152.017 231.592 151.767 231.575C151.517 231.542 151.267 231.525 151.017 231.525C150.4 231.525 149.85 231.6 149.367 231.75C148.883 231.9 148.425 232.125 147.992 232.425C147.558 232.725 147.108 233.092 146.642 233.525V243H144.667ZM159.569 243.15C159.236 243.15 158.828 243.142 158.344 243.125C157.861 243.108 157.353 243.083 156.819 243.05C156.303 243.017 155.828 242.983 155.394 242.95C154.978 242.9 154.653 242.85 154.419 242.8V241.6H159.894C160.444 241.6 160.919 241.558 161.319 241.475C161.719 241.392 162.028 241.208 162.244 240.925C162.478 240.642 162.594 240.217 162.594 239.65V239.05C162.594 238.467 162.403 238.017 162.019 237.7C161.636 237.367 161.019 237.2 160.169 237.2H158.294C157.511 237.2 156.811 237.1 156.194 236.9C155.594 236.7 155.128 236.358 154.794 235.875C154.461 235.392 154.294 234.725 154.294 233.875V233.175C154.294 232.342 154.453 231.658 154.769 231.125C155.103 230.592 155.611 230.192 156.294 229.925C156.994 229.658 157.894 229.525 158.994 229.525C159.461 229.525 159.994 229.542 160.594 229.575C161.211 229.608 161.811 229.658 162.394 229.725C162.978 229.775 163.453 229.833 163.819 229.9V231.1H158.669C157.819 231.1 157.161 231.242 156.694 231.525C156.244 231.808 156.019 232.358 156.019 233.175V233.725C156.019 234.242 156.128 234.633 156.344 234.9C156.561 235.15 156.861 235.317 157.244 235.4C157.644 235.483 158.103 235.525 158.619 235.525H160.519C161.736 235.525 162.678 235.808 163.344 236.375C164.011 236.942 164.344 237.758 164.344 238.825V239.75C164.344 240.65 164.136 241.35 163.719 241.85C163.319 242.333 162.761 242.675 162.044 242.875C161.344 243.058 160.519 243.15 159.569 243.15Z" fill="black"/>
</svg>
