<svg width="37" height="36" viewBox="0 0 37 36" fill="none" xmlns="http://www.w3.org/2000/svg">
<path d="M36.5915 33.435C33.9143 28.8066 29.7887 25.4879 24.9741 23.9146C27.3556 22.4969 29.2059 20.3366 30.2409 17.7655C31.2758 15.1943 31.4381 12.3546 30.7029 9.68226C29.9677 7.00996 28.3756 4.65288 26.1711 2.97299C23.9666 1.2931 21.2717 0.383301 18.5001 0.383301C15.7285 0.383301 13.0335 1.2931 10.829 2.97299C8.62453 4.65288 7.03244 7.00996 6.29722 9.68226C5.56201 12.3546 5.72433 15.1943 6.75926 17.7655C7.79419 20.3366 9.6445 22.4969 12.026 23.9146C7.21139 25.4861 3.08581 28.8049 0.408658 33.435C0.310482 33.595 0.245363 33.7732 0.217142 33.9588C0.188921 34.1445 0.198171 34.3339 0.244345 34.5159C0.290519 34.6979 0.372682 34.8689 0.485987 35.0186C0.599292 35.1684 0.741443 35.2939 0.904053 35.3879C1.06666 35.4818 1.24644 35.5422 1.43277 35.5655C1.61911 35.5888 1.80822 35.5746 1.98897 35.5236C2.16971 35.4727 2.33842 35.3861 2.48514 35.2689C2.63186 35.1516 2.75362 35.0062 2.84323 34.8412C6.15495 29.1178 12.0085 25.7006 18.5001 25.7006C24.9917 25.7006 30.8452 29.1178 34.1569 34.8412C34.2465 35.0062 34.3683 35.1516 34.515 35.2689C34.6617 35.3861 34.8304 35.4727 35.0112 35.5236C35.1919 35.5746 35.381 35.5888 35.5674 35.5655C35.7537 35.5422 35.9335 35.4818 36.0961 35.3879C36.2587 35.2939 36.4008 35.1684 36.5141 35.0186C36.6274 34.8689 36.7096 34.6979 36.7558 34.5159C36.802 34.3339 36.8112 34.1445 36.783 33.9588C36.7548 33.7732 36.6896 33.595 36.5915 33.435ZM8.65631 13.0443C8.65631 11.0974 9.23364 9.19424 10.3153 7.57544C11.3969 5.95664 12.9343 4.69494 14.733 3.94989C16.5317 3.20484 18.511 3.0099 20.4205 3.38973C22.33 3.76955 24.084 4.70708 25.4606 6.08375C26.8373 7.46042 27.7748 9.21441 28.1547 11.1239C28.5345 13.0334 28.3396 15.0127 27.5945 16.8114C26.8495 18.6101 25.5878 20.1475 23.969 21.2291C22.3502 22.3108 20.447 22.8881 18.5001 22.8881C15.8902 22.8853 13.388 21.8473 11.5426 20.0018C9.69711 18.1564 8.65911 15.6542 8.65631 13.0443Z" fill="black"/>
</svg>
