<svg width="21" height="15" viewBox="0 0 21 15" fill="none" xmlns="http://www.w3.org/2000/svg">
<path d="M18.9044 6.4231H5.19953L8.48642 3.1505C8.75552 2.8814 8.9067 2.51642 8.9067 2.13585C8.9067 1.75529 8.75552 1.39031 8.48642 1.12121C8.21732 0.852107 7.85234 0.700928 7.47177 0.700928C7.09121 0.700928 6.72623 0.852107 6.45713 1.12121L0.740803 6.83753C0.610699 6.97344 0.508713 7.1337 0.440696 7.30912C0.297763 7.65705 0.297763 8.0473 0.440696 8.39523C0.508713 8.57065 0.610699 8.73091 0.740803 8.86682L6.45713 14.5831C6.58998 14.7171 6.74803 14.8234 6.92218 14.896C7.09633 14.9685 7.28312 15.0059 7.47177 15.0059C7.66043 15.0059 7.84722 14.9685 8.02136 14.896C8.19551 14.8234 8.35357 14.7171 8.48642 14.5831C8.62037 14.4503 8.72668 14.2922 8.79923 14.1181C8.87179 13.9439 8.90914 13.7572 8.90914 13.5685C8.90914 13.3798 8.87179 13.1931 8.79923 13.0189C8.72668 12.8448 8.62037 12.6867 8.48642 12.5539L5.19953 9.28126H18.9044C19.2834 9.28126 19.6469 9.13069 19.9149 8.86269C20.1829 8.59469 20.3335 8.23119 20.3335 7.85218C20.3335 7.47316 20.1829 7.10967 19.9149 6.84166C19.6469 6.57366 19.2834 6.4231 18.9044 6.4231Z" fill="white"/>
</svg>
