<svg width="27" height="17" viewBox="0 0 27 17" fill="none" xmlns="http://www.w3.org/2000/svg">
<path d="M26.0255 14.571C25.9949 14.7598 25.9437 14.9439 25.867 15.0866C25.7289 15.3398 25.5959 15.3629 25.0741 15.3398C24.3989 15.3122 23.4322 15.3398 22.4092 15.3767C22.4092 15.6299 22.4194 15.7496 22.4194 15.7496C22.4859 16.4447 22.8337 16.4677 22.9718 16.4677H25.1713C25.3657 16.4677 25.5447 16.4677 25.6828 16.3849C25.8619 16.279 25.9386 15.9705 26.0051 15.4319C26.0153 15.3537 26.0204 15.2524 26.0255 15.1327V15.1281C26.0255 15.0912 26.0307 15.0452 26.0307 14.9946V14.9439C26.0307 14.8196 26.0307 14.6815 26.0255 14.571Z" fill="black"/>
<path d="M0.153553 14.571C0.184243 14.7598 0.235394 14.9439 0.31212 15.0866C0.450228 15.3398 0.58322 15.3629 1.10496 15.3398C1.78015 15.3122 2.7469 15.3398 3.76992 15.3767C3.76992 15.6299 3.75969 15.7496 3.75969 15.7496C3.69319 16.4447 3.34537 16.4677 3.20726 16.4677H1.00777C0.813399 16.4677 0.649716 16.4677 0.496264 16.3849C0.31212 16.2882 0.240509 15.9705 0.174013 15.4319C0.163783 15.3537 0.158668 15.2524 0.153553 15.1327V15.1281C0.153553 15.0912 0.148438 15.0452 0.148438 14.9946V14.9439C0.153553 14.8196 0.153553 14.6815 0.153553 14.571Z" fill="black"/>
<path d="M26.1893 10.2297C26.1893 8.81643 25.9847 7.43535 25.9028 7.28344C25.8414 7.17295 25.4476 6.88292 24.5524 6.3351C23.6471 5.77806 23.6675 5.86093 23.5038 5.49725C23.6522 5.45581 23.7954 5.37755 23.8824 5.36835C24.0767 5.34993 24.087 5.51566 24.4911 5.51566C24.8951 5.51566 25.7698 5.41899 25.9489 5.25786C26.1279 5.09674 26.1841 5.04149 26.1841 4.89878C26.1841 4.75607 26.0921 4.46144 25.9182 4.2865C25.7442 4.11157 25.0026 4.0241 24.5678 3.97346C24.133 3.92282 24.0716 3.97346 23.9591 4.03791C23.7801 4.13919 23.7698 5.06451 23.7698 5.06451L23.3453 5.07372C23.0691 4.46144 22.6854 3.22768 22.087 2.25633C21.4322 1.1975 20.7468 0.866044 20.4604 0.783179C20.179 0.704919 19.9233 0.649675 18.0051 0.474739C16.046 0.290596 14.4859 0.267578 13.0946 0.267578C11.7033 0.267578 10.1432 0.2952 8.18414 0.474739C6.26599 0.654279 6.01023 0.704919 5.7289 0.783179C5.44757 0.86144 4.75703 1.1975 4.1023 2.25633C3.50384 3.22768 3.1202 4.46144 2.84399 5.07372L2.41944 5.06451C2.41944 5.06451 2.41432 4.13919 2.23018 4.03791C2.11765 3.97346 2.05627 3.91822 1.62148 3.97346C1.1867 4.0287 0.445013 4.11157 0.2711 4.2865C0.0971867 4.46144 0.00511509 4.75607 0.00511509 4.89878C0.00511509 5.04149 0.0613811 5.10134 0.240409 5.25786C0.419437 5.41899 1.29412 5.51566 1.69821 5.51566C2.1023 5.51566 2.11253 5.34993 2.30691 5.36835C2.39386 5.37755 2.5422 5.45581 2.68542 5.49725C2.51662 5.86093 2.5422 5.77806 1.63683 6.3351C0.741688 6.88753 0.342711 7.17295 0.286445 7.28344C0.204604 7.43535 0 8.81643 0 10.2297C0 11.643 0.112532 12.9136 0.112532 13.3648C0.112532 13.5535 0.112532 13.885 0.158568 14.2026C0.189258 14.3914 0.235294 14.5755 0.317136 14.7182C0.455243 14.9714 0.58312 14.9944 1.10997 14.9714C1.78517 14.9438 2.76215 14.9714 3.76982 15.0082C4.44501 15.0313 5.13555 15.0543 5.74936 15.0681C7.28389 15.0957 6.83376 14.8655 7.48849 14.8747C8.14322 14.8839 10.7263 14.9806 13.0895 14.9806C15.4527 14.9806 18.0409 14.8839 18.6905 14.8747C19.3453 14.8655 18.8951 15.0957 20.4297 15.0681C21.0435 15.0589 21.734 15.0313 22.4092 15.0082C23.4169 14.976 24.399 14.9438 25.0691 14.9714C25.5959 14.9944 25.7238 14.9714 25.8619 14.7182C25.9386 14.5755 25.9898 14.3914 26.0205 14.2026C26.0716 13.885 26.0665 13.5535 26.0665 13.3648C26.0767 12.9182 26.1893 11.643 26.1893 10.2297ZM4.40921 3.25991C4.65473 2.7443 5.3913 1.7085 5.74936 1.52436C5.83632 1.47832 6.59847 1.26195 8.50639 1.14686C10.2609 1.04098 12.1995 0.999548 13.0997 0.999548C14 0.999548 15.9386 1.04098 17.6931 1.14686C19.5959 1.26195 20.3683 1.47372 20.4501 1.52436C20.9105 1.80978 21.5448 2.7443 21.7903 3.25991C22.0358 3.77551 22.3632 4.78829 22.3018 4.9264C22.2404 5.06451 22.3632 5.13356 21.5345 5.07372C20.711 5.01847 15.5396 4.95863 13.1049 4.95863C10.6752 4.95863 5.50384 5.01847 4.67519 5.07372C3.84655 5.12896 3.96931 5.06451 3.90793 4.9264C3.83632 4.78829 4.16368 3.78011 4.40921 3.25991ZM6.29156 9.02359C5.92327 9.10645 5.70333 9.28599 5.24297 9.28139C4.78261 9.28139 3.53964 9.09264 3.27366 9.08344C3.00767 9.07423 2.77238 9.24456 2.63427 9.27679C2.49616 9.30901 2.22506 9.22154 1.81586 9.10645C1.40665 8.99137 1.16624 9.02359 1.03325 8.5218C0.895141 8.02461 1.03325 7.31106 1.03325 7.31106C1.91816 7.27423 2.77238 7.34789 4.3734 7.753C5.97442 8.15812 6.86445 8.93612 6.86445 8.93612C6.86445 8.93612 6.65985 8.94072 6.29156 9.02359ZM18.3223 12.6512C17.5908 12.7387 14.5269 12.7617 13.0946 12.7617C11.6624 12.7617 8.59847 12.7341 7.86701 12.6512C7.12021 12.5637 6.14834 11.7581 6.81842 11.1182C7.72379 10.2481 7.55499 10.2758 9.61125 10.0364C11.3913 9.82922 12.7417 9.82001 13.0946 9.82001C13.4425 9.82001 14.798 9.83382 16.578 10.0364C18.6343 10.2758 18.4655 10.2481 19.3708 11.1182C20.0409 11.7581 19.0691 12.5637 18.3223 12.6512ZM25.156 8.5264C25.0179 9.02359 24.7826 8.99597 24.3734 9.11106C23.9642 9.22615 23.6931 9.30901 23.555 9.28139C23.4169 9.25377 23.1816 9.08344 22.9156 9.08804C22.6496 9.09725 21.4067 9.28599 20.9463 9.28599C20.4859 9.28599 20.266 9.11106 19.8977 9.02819C19.5294 8.94533 19.3248 8.94533 19.3248 8.94533C19.3248 8.94533 20.2097 8.16272 21.8159 7.76221C23.4169 7.35709 24.2711 7.28344 25.156 7.32026C25.156 7.31106 25.2941 8.02461 25.156 8.5264Z" fill="black"/>
</svg>
