<svg width="18" height="21" viewBox="0 0 18 21" fill="none" xmlns="http://www.w3.org/2000/svg">
<path d="M11.5679 3.78125C11.5679 4.29902 11.1481 4.71875 10.6304 4.71875C10.1126 4.71875 9.69287 4.29902 9.69287 3.78125C9.69287 3.26348 10.1126 2.84375 10.6304 2.84375C11.1481 2.84375 11.5679 3.26348 11.5679 3.78125Z" fill="#757575"/>
<path d="M6.23389 6.60193C6.23389 7.2923 5.67426 7.85193 4.98389 7.85193C4.29351 7.85193 3.73389 7.2923 3.73389 6.60193C3.73389 5.91155 4.29351 5.35193 4.98389 5.35193C5.67426 5.35193 6.23389 5.91155 6.23389 6.60193Z" fill="#757575"/>
<path d="M8.75 7.85193C9.44037 7.85193 10 7.2923 10 6.60193C10 5.91155 9.44037 5.35193 8.75 5.35193C8.05963 5.35193 7.5 5.91155 7.5 6.60193C7.5 7.2923 8.05963 7.85193 8.75 7.85193Z" fill="#757575"/>
<path d="M6.86963 10.9926C7.56 10.9926 8.11963 10.4329 8.11963 9.74255C8.11963 9.05218 7.56 8.49255 6.86963 8.49255C6.17925 8.49255 5.61963 9.05218 5.61963 9.74255C5.61963 10.4329 6.17925 10.9926 6.86963 10.9926Z" fill="#757575"/>
<path d="M10.6299 10.9926C11.3203 10.9926 11.8799 10.4329 11.8799 9.74255C11.8799 9.05218 11.3203 8.49255 10.6299 8.49255C9.93951 8.49255 9.37988 9.05218 9.37988 9.74255C9.37988 10.4329 9.93951 10.9926 10.6299 10.9926Z" fill="#757575"/>
<path d="M12.5156 7.85193C13.206 7.85193 13.7656 7.2923 13.7656 6.60193C13.7656 5.91155 13.206 5.35193 12.5156 5.35193C11.8253 5.35193 11.2656 5.91155 11.2656 6.60193C11.2656 7.2923 11.8253 7.85193 12.5156 7.85193Z" fill="#757575"/>
<path d="M7.80713 3.78125C7.80713 4.29902 7.38738 4.71875 6.86963 4.71875C6.35188 4.71875 5.93213 4.29902 5.93213 3.78125C5.93213 3.26348 6.35188 2.84375 6.86963 2.84375C7.38738 2.84375 7.80713 3.26348 7.80713 3.78125Z" fill="#757575"/>
<path d="M5.60693 16.6387C5.60693 17.5016 4.90737 18.2012 4.04443 18.2012C3.18149 18.2012 2.48193 17.5016 2.48193 16.6387C2.48193 15.7757 3.18149 15.0762 4.04443 15.0762C4.90737 15.0762 5.60693 15.7757 5.60693 16.6387Z" fill="#757575"/>
<path d="M13.4561 18.2012C14.319 18.2012 15.0186 17.5016 15.0186 16.6387C15.0186 15.7757 14.319 15.0762 13.4561 15.0762C12.5931 15.0762 11.8936 15.7757 11.8936 16.6387C11.8936 17.5016 12.5931 18.2012 13.4561 18.2012Z" fill="#757575"/>
<path fill-rule="evenodd" clip-rule="evenodd" d="M12.8972 12.8676C14.9181 11.5239 16.25 9.22624 16.25 6.61755C16.25 4.00884 14.9181 1.7112 12.8972 0.367554H4.60275C2.58189 1.7112 1.25 4.00884 1.25 6.61755C1.25 9.22624 2.58189 11.5239 4.60275 12.8676H3.75C1.67893 12.8676 0 14.5465 0 16.6176C0 18.6886 1.67893 20.3676 3.75 20.3676H13.75C15.8211 20.3676 17.5 18.6886 17.5 16.6176C17.5 14.5465 15.8211 12.8676 13.75 12.8676H12.8972ZM2.5 6.61755C2.5 4.57443 3.47944 2.75959 4.99925 1.61755H12.5007C14.0206 2.75959 15 4.57443 15 6.61755C15 10.0693 12.2017 12.8676 8.75 12.8676C5.29825 12.8676 2.5 10.0693 2.5 6.61755ZM3.75 14.1176C2.36929 14.1176 1.25 15.2369 1.25 16.6176C1.25 17.9982 2.36929 19.1176 3.75 19.1176H13.75C15.1307 19.1176 16.25 17.9982 16.25 16.6176C16.25 15.2369 15.1307 14.1176 13.75 14.1176H3.75Z" fill="#757575"/>
</svg>
