<svg width="30" height="21" viewBox="0 0 30 21" fill="none" xmlns="http://www.w3.org/2000/svg">
<path d="M17.3529 5.96372H2.05879C1.74678 5.96372 1.44754 5.83977 1.2269 5.61914C1.00627 5.39851 0.882324 5.09927 0.882324 4.78725C0.882324 4.47523 1.00627 4.17599 1.2269 3.95536C1.44754 3.73473 1.74678 3.61078 2.05879 3.61078H17.3529C17.6649 3.61078 17.9642 3.73473 18.1848 3.95536C18.4054 4.17599 18.5294 4.47523 18.5294 4.78725C18.5294 5.09927 18.4054 5.39851 18.1848 5.61914C17.9642 5.83977 17.6649 5.96372 17.3529 5.96372ZM27.9411 5.96372H23.2353C22.9232 5.96372 22.624 5.83977 22.4034 5.61914C22.1827 5.39851 22.0588 5.09927 22.0588 4.78725C22.0588 4.47523 22.1827 4.17599 22.4034 3.95536C22.624 3.73473 22.9232 3.61078 23.2353 3.61078H27.9411C28.2532 3.61078 28.5524 3.73473 28.773 3.95536C28.9937 4.17599 29.1176 4.47523 29.1176 4.78725C29.1176 5.09927 28.9937 5.39851 28.773 5.61914C28.5524 5.83977 28.2532 5.96372 27.9411 5.96372Z" fill="#34A853"/>
<path d="M20.2941 8.90467C19.4797 8.90467 18.6836 8.66317 18.0064 8.21072C17.3293 7.75827 16.8015 7.11518 16.4899 6.36278C16.1782 5.61037 16.0967 4.78245 16.2556 3.98371C16.4144 3.18496 16.8066 2.45127 17.3825 1.87541C17.9583 1.29954 18.692 0.907374 19.4908 0.748494C20.2895 0.589614 21.1174 0.671157 21.8698 0.982812C22.6222 1.29447 23.2653 1.82223 23.7178 2.49938C24.1702 3.17652 24.4117 3.97263 24.4117 4.78702C24.4117 5.87909 23.9779 6.92643 23.2057 7.69864C22.4335 8.47084 21.3862 8.90467 20.2941 8.90467ZM20.2941 3.02232C19.9451 3.02232 19.6039 3.12581 19.3137 3.31972C19.0235 3.51363 18.7973 3.78924 18.6637 4.1117C18.5301 4.43415 18.4952 4.78898 18.5633 5.1313C18.6314 5.47362 18.7995 5.78806 19.0463 6.03486C19.2931 6.28165 19.6075 6.44973 19.9498 6.51782C20.2921 6.58591 20.647 6.55096 20.9694 6.4174C21.2919 6.28383 21.5675 6.05764 21.7614 5.76744C21.9553 5.47723 22.0588 5.13605 22.0588 4.78702C22.0588 4.31899 21.8729 3.87013 21.5419 3.53919C21.211 3.20824 20.7621 3.02232 20.2941 3.02232ZM27.9411 17.7282H12.647C12.335 17.7282 12.0358 17.6042 11.8151 17.3836C11.5945 17.163 11.4706 16.8637 11.4706 16.5517C11.4706 16.2397 11.5945 15.9405 11.8151 15.7198C12.0358 15.4992 12.335 15.3753 12.647 15.3753H27.9411C28.2532 15.3753 28.5524 15.4992 28.773 15.7198C28.9937 15.9405 29.1176 16.2397 29.1176 16.5517C29.1176 16.8637 28.9937 17.163 28.773 17.3836C28.5524 17.6042 28.2532 17.7282 27.9411 17.7282ZM6.76468 17.7282H2.05879C1.74678 17.7282 1.44754 17.6042 1.2269 17.3836C1.00627 17.163 0.882324 16.8637 0.882324 16.5517C0.882324 16.2397 1.00627 15.9405 1.2269 15.7198C1.44754 15.4992 1.74678 15.3753 2.05879 15.3753H6.76468C7.0767 15.3753 7.37594 15.4992 7.59657 15.7198C7.8172 15.9405 7.94115 16.2397 7.94115 16.5517C7.94115 16.8637 7.8172 17.163 7.59657 17.3836C7.37594 17.6042 7.0767 17.7282 6.76468 17.7282Z" fill="#34A853"/>
<path d="M9.70603 20.6693C8.89163 20.6693 8.09553 20.4278 7.41839 19.9754C6.74124 19.5229 6.21347 18.8798 5.90182 18.1274C5.59016 17.375 5.50862 16.5471 5.6675 15.7484C5.82638 14.9496 6.21855 14.2159 6.79441 13.6401C7.37028 13.0642 8.10397 12.672 8.90271 12.5131C9.70146 12.3543 10.5294 12.4358 11.2818 12.7475C12.0342 13.0591 12.6773 13.5869 13.1297 14.264C13.5822 14.9412 13.8237 15.7373 13.8237 16.5517C13.8237 17.6437 13.3899 18.6911 12.6176 19.4633C11.8454 20.2355 10.7981 20.6693 9.70603 20.6693ZM9.70603 14.787C9.357 14.787 9.01581 14.8905 8.72561 15.0844C8.43541 15.2783 8.20922 15.5539 8.07565 15.8763C7.94209 16.1988 7.90714 16.5536 7.97523 16.8959C8.04332 17.2383 8.21139 17.5527 8.45819 17.7995C8.70499 18.0463 9.01943 18.2144 9.36175 18.2825C9.70407 18.3506 10.0589 18.3156 10.3814 18.182C10.7038 18.0485 10.9794 17.8223 11.1733 17.5321C11.3672 17.2419 11.4707 16.9007 11.4707 16.5517C11.4707 16.0836 11.2848 15.6348 10.9539 15.3038C10.6229 14.9729 10.1741 14.787 9.70603 14.787Z" fill="#34A853"/>
</svg>
