<svg width="30" height="20" viewBox="0 0 30 20" fill="none" xmlns="http://www.w3.org/2000/svg">
<path d="M17.3534 5.29435H2.05928C1.74726 5.29435 1.44802 5.1704 1.22739 4.94977C1.00676 4.72914 0.882813 4.4299 0.882812 4.11788C0.882812 3.80586 1.00676 3.50662 1.22739 3.28599C1.44802 3.06536 1.74726 2.94141 2.05928 2.94141H17.3534C17.6654 2.94141 17.9647 3.06536 18.1853 3.28599C18.4059 3.50662 18.5299 3.80586 18.5299 4.11788C18.5299 4.4299 18.4059 4.72914 18.1853 4.94977C17.9647 5.1704 17.6654 5.29435 17.3534 5.29435ZM27.9416 5.29435H23.2358C22.9237 5.29435 22.6245 5.1704 22.4039 4.94977C22.1832 4.72914 22.0593 4.4299 22.0593 4.11788C22.0593 3.80586 22.1832 3.50662 22.4039 3.28599C22.6245 3.06536 22.9237 2.94141 23.2358 2.94141H27.9416C28.2537 2.94141 28.5529 3.06536 28.7735 3.28599C28.9942 3.50662 29.1181 3.80586 29.1181 4.11788C29.1181 4.4299 28.9942 4.72914 28.7735 4.94977C28.5529 5.1704 28.2537 5.29435 27.9416 5.29435Z" fill="#34A853"/>
<path d="M20.2946 8.23529C19.4802 8.23529 18.6841 7.9938 18.0069 7.54135C17.3298 7.08889 16.802 6.4458 16.4904 5.6934C16.1787 4.941 16.0972 4.11308 16.2561 3.31433C16.4149 2.51559 16.8071 1.7819 17.383 1.20603C17.9588 0.630169 18.6925 0.238002 19.4913 0.0791213C20.29 -0.079759 21.1179 0.00178412 21.8703 0.313439C22.6227 0.625094 23.2658 1.15286 23.7183 1.83001C24.1707 2.50715 24.4122 3.30325 24.4122 4.11765C24.4122 5.20972 23.9784 6.25705 23.2062 7.02926C22.434 7.80147 21.3866 8.23529 20.2946 8.23529ZM20.2946 2.35294C19.9456 2.35294 19.6044 2.45644 19.3142 2.65035C19.024 2.84426 18.7978 3.11987 18.6642 3.44232C18.5306 3.76478 18.4957 4.11961 18.5638 4.46193C18.6319 4.80424 18.7999 5.11869 19.0467 5.36548C19.2935 5.61228 19.608 5.78035 19.9503 5.84845C20.2926 5.91654 20.6474 5.88159 20.9699 5.74802C21.2924 5.61446 21.568 5.38827 21.7619 5.09807C21.9558 4.80786 22.0593 4.46667 22.0593 4.11765C22.0593 3.64962 21.8734 3.20076 21.5424 2.86981C21.2115 2.53887 20.7626 2.35294 20.2946 2.35294ZM27.9416 17.0588H12.6475C12.3355 17.0588 12.0363 16.9349 11.8156 16.7142C11.595 16.4936 11.471 16.1944 11.471 15.8824C11.471 15.5703 11.595 15.2711 11.8156 15.0505C12.0363 14.8298 12.3355 14.7059 12.6475 14.7059H27.9416C28.2537 14.7059 28.5529 14.8298 28.7735 15.0505C28.9942 15.2711 29.1181 15.5703 29.1181 15.8824C29.1181 16.1944 28.9942 16.4936 28.7735 16.7142C28.5529 16.9349 28.2537 17.0588 27.9416 17.0588ZM6.76517 17.0588H2.05928C1.74726 17.0588 1.44802 16.9349 1.22739 16.7142C1.00676 16.4936 0.882813 16.1944 0.882812 15.8824C0.882812 15.5703 1.00676 15.2711 1.22739 15.0505C1.44802 14.8298 1.74726 14.7059 2.05928 14.7059H6.76517C7.07719 14.7059 7.37642 14.8298 7.59706 15.0505C7.81769 15.2711 7.94164 15.5703 7.94164 15.8824C7.94164 16.1944 7.81769 16.4936 7.59706 16.7142C7.37642 16.9349 7.07719 17.0588 6.76517 17.0588Z" fill="#34A853"/>
<circle cx="9.71277" cy="15.88" r="4.12" fill="#34A853"/>
<path d="M24.1227 4.12C24.1227 6.39541 22.2781 8.24 20.0027 8.24C17.7272 8.24 15.8827 6.39541 15.8827 4.12C15.8827 1.84458 17.7272 -4.76837e-06 20.0027 -4.76837e-06C22.2781 -4.76837e-06 24.1227 1.84458 24.1227 4.12Z" fill="#34A853"/>
</svg>
