<svg width="494" height="439" viewBox="0 0 494 439" fill="none" xmlns="http://www.w3.org/2000/svg">
<path d="M219.429 249.143V194.286C184.952 197.333 148.381 208.476 109.714 227.714V280.571C148.762 262.286 185.333 251.81 219.429 249.143ZM219.429 129.714V73.4286C186.667 74.9524 150.095 86.9524 109.714 109.429V163.429C150.667 142.286 187.238 131.048 219.429 129.714ZM457.143 262V209.429C412.381 231.524 375.81 238.286 347.429 229.714V165.714C343.619 164.571 339.905 163.143 336.286 161.429C335.333 160.857 332.19 159.238 326.857 156.571C321.524 153.905 318.238 152.286 317 151.714C315.762 151.143 312.762 149.714 308 147.429C303.238 145.143 299.952 143.667 298.143 143C296.333 142.333 293.238 141.095 288.857 139.286C284.476 137.476 281.048 136.286 278.571 135.714C276.095 135.143 272.762 134.333 268.571 133.286C264.381 132.238 260.619 131.524 257.286 131.143C253.952 130.762 250.19 130.381 246 130C241.81 129.619 237.619 129.429 233.429 129.429C229.048 129.429 224.381 129.714 219.429 130.286V193.714H224.857C244.286 193.714 262.619 196.476 279.857 202C297.095 207.524 315.905 215.333 336.286 225.429C339.905 227.143 343.619 228.571 347.429 229.714V283.429C355.429 286.667 364.095 288.286 373.429 288.286C396.286 288.286 424.19 279.524 457.143 262ZM457.143 140V86C424.952 103.333 395.81 112 369.714 112C361.143 112 353.714 111.238 347.429 109.714V165.714C375.619 173.714 412.19 165.143 457.143 140ZM73.1429 36.5714C73.1429 43.2381 71.4762 49.3333 68.1429 54.8571C64.8095 60.381 60.381 64.7619 54.8571 68V429.714C54.8571 432.381 54 434.571 52.2857 436.286C50.5714 438 48.381 438.857 45.7143 438.857H27.4286C24.7619 438.857 22.5714 438 20.8571 436.286C19.1429 434.571 18.2857 432.381 18.2857 429.714V68C12.7619 64.7619 8.33333 60.381 5 54.8571C1.66667 49.3333 0 43.2381 0 36.5714C0 26.4762 3.57143 17.8571 10.7143 10.7143C17.8571 3.57143 26.4762 0 36.5714 0C46.6667 0 55.2857 3.57143 62.4286 10.7143C69.5714 17.8571 73.1429 26.4762 73.1429 36.5714ZM493.714 54.8571V272.857C493.714 280.286 490.381 285.714 483.714 289.143C481.81 290.095 480.191 290.952 478.857 291.714C437.333 313.81 402.19 324.857 373.429 324.857C356.667 324.857 341.619 321.524 328.286 314.857L320.286 310.857C308.095 304.571 298.667 300 292 297.143C285.333 294.286 276.667 291.524 266 288.857C255.333 286.19 244.476 284.857 233.429 284.857C214 284.857 191.571 289.048 166.143 297.429C140.714 305.81 118.952 315.524 100.857 326.571C98 328.286 94.8571 329.143 91.4286 329.143C88.381 329.143 85.3333 328.381 82.2857 326.857C76.1905 323.238 73.1429 317.905 73.1429 310.857V98.8571C73.1429 92.1905 76.0952 86.9524 82 83.1429C88.6667 79.1429 96.1429 75.0952 104.429 71C112.714 66.9048 123.571 61.9524 137 56.1429C150.429 50.3333 164.952 45.619 180.571 42C196.19 38.381 210.952 36.5714 224.857 36.5714C246.19 36.5714 266.095 39.5238 284.571 45.4286C303.048 51.3333 322.952 59.5238 344.286 70C351.524 73.619 360 75.4286 369.714 75.4286C392.952 75.4286 422.476 64.7619 458.286 43.4286C462.476 41.1429 465.429 39.5238 467.143 38.5714C473.048 35.5238 478.952 35.7143 484.857 39.1429C490.762 42.9524 493.714 48.1905 493.714 54.8571Z" fill="black"/>
</svg>
