<svg width="38" height="38" viewBox="0 0 38 38" fill="none" xmlns="http://www.w3.org/2000/svg">
<path d="M19.2505 12.2994C15.4834 12.2994 12.4323 15.3505 12.4323 19.1176C12.4323 22.8846 15.4834 25.9357 19.2505 25.9357C23.0175 25.9357 26.0687 22.8846 26.0687 19.1176C26.0687 15.3505 23.0175 12.2994 19.2505 12.2994ZM34.4891 17.413C33.705 10.3051 28.063 4.66301 20.955 3.87892V0.367554H17.5459V3.87892C10.438 4.66301 4.79594 10.3051 4.01185 17.413H0.500488V20.8221H4.01185C4.79594 27.9301 10.438 33.5721 17.5459 34.3562V37.8676H20.955V34.3562C28.063 33.5721 33.705 27.9301 34.4891 20.8221H38.0005V17.413H34.4891ZM19.2505 31.0494C12.6624 31.0494 7.31867 25.7056 7.31867 19.1176C7.31867 12.5295 12.6624 7.18574 19.2505 7.18574C25.8386 7.18574 31.1823 12.5295 31.1823 19.1176C31.1823 25.7056 25.8386 31.0494 19.2505 31.0494Z" fill="white"/>
</svg>
