<svg width="45" height="46" viewBox="0 0 45 46" fill="none" xmlns="http://www.w3.org/2000/svg">
<path d="M43.7883 18.1153L25.0383 1.13082C25.0291 1.12314 25.0205 1.11487 25.0125 1.10606C24.3222 0.503313 23.4226 0.169312 22.4895 0.169312C21.5563 0.169312 20.6567 0.503313 19.9664 1.10606L19.9406 1.13082L1.21172 18.1153C0.829682 18.4525 0.524728 18.8623 0.316152 19.3186C0.107576 19.7748 -7.88504e-05 20.2677 4.33308e-08 20.766V41.569C4.33308e-08 42.5239 0.395088 43.4396 1.09835 44.1148C1.80161 44.79 2.75544 45.1693 3.75 45.1693H15C15.9946 45.1693 16.9484 44.79 17.6516 44.1148C18.3549 43.4396 18.75 42.5239 18.75 41.569V30.7681H26.25V41.569C26.25 42.5239 26.6451 43.4396 27.3484 44.1148C28.0516 44.79 29.0054 45.1693 30 45.1693H41.25C42.2446 45.1693 43.1984 44.79 43.9016 44.1148C44.6049 43.4396 45 42.5239 45 41.569V20.766C45.0001 20.2677 44.8924 19.7748 44.6838 19.3186C44.4753 18.8623 44.1703 18.4525 43.7883 18.1153ZM41.25 41.569H30V30.7681C30 29.8132 29.6049 28.8975 28.9017 28.2223C28.1984 27.5471 27.2446 27.1678 26.25 27.1678H18.75C17.7554 27.1678 16.8016 27.5471 16.0984 28.2223C15.3951 28.8975 15 29.8132 15 30.7681V41.569H3.75V20.766L3.77578 20.7435L22.5 3.76579L41.2266 20.739L41.2523 20.7615L41.25 41.569Z" fill="black"/>
</svg>
