<svg width="50" height="57" viewBox="0 0 50 57" fill="none" xmlns="http://www.w3.org/2000/svg">
<path d="M25.0683 0.367676C18.6721 0.367676 12.5379 2.87786 8.01519 7.346C3.49245 11.8141 0.95166 17.8742 0.95166 24.1931C0.95166 42.0113 25.0683 56.3677 25.0683 56.3677C25.0683 56.3677 49.1849 39.695 49.1849 24.1931C49.1849 17.8742 46.6441 11.8141 42.1213 7.346C37.5986 2.87786 31.4644 0.367676 25.0683 0.367676Z" fill="#34A853"/>
<path d="M39.3097 13.7313H38.4172V11.4046C38.4172 11.1075 38.1781 10.8677 37.8818 10.8677C37.5855 10.8677 37.3463 11.1075 37.3463 11.4046V13.7313H35.5613V11.4046C35.5613 11.1075 35.3221 10.8677 35.0258 10.8677C34.7295 10.8677 34.4904 11.1075 34.4904 11.4046V13.7313H33.5979C33.3016 13.7313 33.0624 13.9711 33.0624 14.2682V17.8478C33.0624 19.5409 34.3012 20.9441 35.9183 21.2018V34.3137C35.9183 35.2014 35.1972 35.9245 34.3119 35.9245C33.4265 35.9245 32.7054 35.2014 32.7054 34.3137V25.0069C32.7054 23.5249 31.5059 22.3222 30.028 22.3222H28.4215V12.8257C28.4215 11.7447 27.5469 10.8677 26.4688 10.8677H13.5958C12.5176 10.8677 11.643 11.7447 11.643 12.8257V36.8194H11.4538C10.8684 36.8194 10.3936 37.2955 10.3936 37.8825V40.041C10.3936 40.2378 10.5542 40.3989 10.7505 40.3989H29.314C29.5104 40.3989 29.671 40.2378 29.671 40.041V37.8825C29.671 37.2955 29.1962 36.8194 28.6107 36.8194H28.4215V23.3961H30.028C30.9133 23.3961 31.6344 24.1192 31.6344 25.0069V34.3137C31.6344 35.7956 32.8339 36.9984 34.3119 36.9984C35.7898 36.9984 36.9893 35.7956 36.9893 34.3137V21.2018C38.6065 20.9441 39.8452 19.5409 39.8452 17.8478V14.2682C39.8452 13.9711 39.606 13.7313 39.3097 13.7313ZM12.714 12.8257C12.714 12.3389 13.1102 11.9415 13.5958 11.9415H26.4688C26.9543 11.9415 27.3506 12.3389 27.3506 12.8257V36.6404H12.714V12.8257ZM38.7742 17.8478C38.7742 19.1293 37.7318 20.1745 36.4538 20.1745C35.1758 20.1745 34.1334 19.1293 34.1334 17.8478V14.8052H38.7742V17.8478ZM36.9964 17.1319C36.9964 17.429 36.7537 17.6688 36.4574 17.6688C36.1611 17.6688 35.9183 17.429 35.9183 17.1319C35.9183 16.8634 36.1147 16.6379 36.3788 16.6021C36.4288 16.5949 36.4859 16.5949 36.5359 16.6021C36.8001 16.6379 36.9964 16.8634 36.9964 17.1319ZM24.641 27.0078C24.6981 27.1367 24.6731 27.2871 24.5803 27.3944L18.1545 34.5535C18.0867 34.6323 17.9867 34.6717 17.8903 34.6717C17.8404 34.6717 17.7904 34.6609 17.7404 34.6394C17.5976 34.575 17.5155 34.4247 17.5333 34.2707L18.1974 28.9444H15.7448C15.602 28.9444 15.4771 28.862 15.42 28.7332C15.3629 28.6043 15.3878 28.454 15.4807 28.3466L21.9065 21.1875C22.01 21.0694 22.1778 21.0372 22.3206 21.1016C22.4634 21.166 22.5455 21.3164 22.5276 21.4703L21.8636 26.7967H24.3162C24.4589 26.7967 24.5839 26.879 24.641 27.0078ZM24.3197 13.7313H15.7448C15.0558 13.7313 14.4989 14.2933 14.4989 14.9806V17.8478C14.4989 18.5386 15.0594 19.0971 15.7448 19.0971H24.3162C25.0051 19.0971 25.562 18.5351 25.562 17.8478V14.9806C25.5656 14.2933 25.0051 13.7313 24.3197 13.7313ZM24.4946 17.8514C24.4946 17.948 24.4161 18.0268 24.3197 18.0268H15.7448C15.6484 18.0268 15.5699 17.948 15.5699 17.8514V14.9842C15.5699 14.8875 15.6484 14.8088 15.7448 14.8088H24.3162C24.4125 14.8088 24.4911 14.8875 24.4911 14.9842V17.8514H24.4946Z" fill="white"/>
</svg>
