<svg width="131" height="133" viewBox="0 0 131 133" fill="none" xmlns="http://www.w3.org/2000/svg">
<g clip-path="url(#clip0_490_7656)">
<rect y="0.669342" width="131" height="132" rx="65.5" fill="#34A853"/>
<path d="M94.2775 45.4238C94.2775 37.7977 91.2481 30.4838 85.8555 25.0913C80.463 19.6988 73.1492 16.6693 65.523 16.6693C57.8969 16.6693 50.5831 19.6988 45.1905 25.0913C39.798 30.4838 36.7686 37.7977 36.7686 45.4238C36.7686 61.3013 65.523 101.448 65.523 101.448C65.523 101.448 94.2775 61.3013 94.2775 45.4238ZM46.7701 45.4238C46.7701 41.7149 47.87 38.0892 49.9306 35.0053C51.9912 31.9214 54.92 29.5177 58.3466 28.0984C61.7733 26.679 65.5438 26.3077 69.1816 27.0312C72.8193 27.7548 76.1607 29.5409 78.7834 32.1635C81.406 34.7862 83.1921 38.1276 83.9156 41.7653C84.6392 45.403 84.2679 49.1736 82.8485 52.6003C81.4291 56.0269 79.0255 58.9557 75.9416 61.0163C72.8577 63.0769 69.232 64.1768 65.523 64.1768C60.5495 64.1768 55.7796 62.201 52.2627 58.6842C48.7459 55.1673 46.7701 50.3974 46.7701 45.4238Z" fill="white"/>
<path d="M79.994 83.8517C77.8374 87.3679 75.7433 90.6184 73.8993 93.4001C81.713 94.4628 87.1826 96.9631 87.1826 99.9011C87.1826 103.777 77.4936 106.933 65.523 106.933C53.5523 106.933 43.8633 103.808 43.8633 99.9011C43.8633 96.9475 49.3642 94.4471 57.1623 93.4001C55.3182 90.6184 53.2242 87.3523 51.0676 83.8361C32.1584 85.9771 18.5 92.3218 18.5 99.8386C18.5 109.137 39.5502 116.669 65.523 116.669C91.4958 116.669 112.546 109.137 112.546 99.8386C112.546 92.3218 98.8876 85.9771 79.994 83.8517Z" fill="white"/>
<path d="M63.4877 60.6693H60.4877C60.2661 60.6679 60.0476 60.6173 59.8479 60.5214C59.6482 60.4254 59.4723 60.2864 59.3327 60.1143C59.1861 59.9456 59.079 59.7463 59.0193 59.5309C58.9596 59.3155 58.9488 59.0895 58.9877 58.8693L61.0577 48.6693H55.9877C55.7122 48.6699 55.442 48.5946 55.2065 48.4518C54.971 48.3089 54.7794 48.1039 54.6527 47.8593C54.5366 47.6222 54.4852 47.3586 54.5037 47.0952C54.5221 46.8319 54.6097 46.578 54.7577 46.3593L65.2577 31.3593C65.3904 31.1523 65.5721 30.9811 65.7865 30.8608C66.001 30.7404 66.2418 30.6747 66.4877 30.6693H69.4877C69.7093 30.6708 69.9277 30.7213 70.1274 30.8173C70.3271 30.9133 70.5031 31.0523 70.6427 31.2243C70.7893 31.393 70.8964 31.5924 70.9561 31.8078C71.0158 32.0232 71.0266 32.2492 70.9877 32.4693L68.9177 42.6693H73.9877C74.2631 42.6688 74.5334 42.7441 74.7689 42.8869C75.0044 43.0298 75.196 43.2348 75.3227 43.4793C75.4388 43.7165 75.4902 43.9801 75.4717 44.2435C75.4533 44.5068 75.3657 44.7607 75.2177 44.9793L64.7177 59.9793C64.5849 60.1864 64.4033 60.3576 64.1888 60.4779C63.9744 60.5982 63.7336 60.664 63.4877 60.6693ZM62.3177 57.6693H62.7077L71.1077 45.6693H67.0877C66.8661 45.6679 66.6477 45.6173 66.4479 45.5214C66.2482 45.4254 66.0723 45.2864 65.9327 45.1143C65.7913 44.9431 65.6897 44.7426 65.6352 44.5273C65.5807 44.312 65.5748 44.0872 65.6177 43.8693L67.6577 33.6693H67.2677L58.8677 45.6693H62.8877C63.1093 45.6708 63.3277 45.7213 63.5274 45.8173C63.7271 45.9133 63.9031 46.0523 64.0427 46.2243C64.1841 46.3956 64.2857 46.5961 64.3402 46.8114C64.3946 47.0267 64.4006 47.2514 64.3577 47.4693L62.3177 57.6693Z" fill="white"/>
</g>
<defs>
<clipPath id="clip0_490_7656">
<rect y="0.669342" width="131" height="132" rx="65.5" fill="white"/>
</clipPath>
</defs>
</svg>