<svg width="41" height="47" viewBox="0 0 41 47" fill="none" xmlns="http://www.w3.org/2000/svg">
<path d="M26.7464 8.77015C26.7464 9.96217 25.78 10.9285 24.588 10.9285C23.396 10.9285 22.4297 9.96217 22.4297 8.77015C22.4297 7.57813 23.396 6.61182 24.588 6.61182C25.78 6.61182 26.7464 7.57813 26.7464 8.77015Z" fill="#757575"/>
<path d="M14.4675 15.2633C14.4675 16.8527 13.1791 18.1411 11.5897 18.1411C10.0003 18.1411 8.71191 16.8527 8.71191 15.2633C8.71191 13.6739 10.0003 12.3855 11.5897 12.3855C13.1791 12.3855 14.4675 13.6739 14.4675 15.2633Z" fill="#757575"/>
<path d="M20.2596 18.1411C21.849 18.1411 23.1374 16.8527 23.1374 15.2633C23.1374 13.6739 21.849 12.3855 20.2596 12.3855C18.6702 12.3855 17.3818 13.6739 17.3818 15.2633C17.3818 16.8527 18.6702 18.1411 20.2596 18.1411Z" fill="#757575"/>
<path d="M15.9305 25.3718C17.5199 25.3718 18.8083 24.0834 18.8083 22.494C18.8083 20.9046 17.5199 19.6162 15.9305 19.6162C14.3411 19.6162 13.0527 20.9046 13.0527 22.494C13.0527 24.0834 14.3411 25.3718 15.9305 25.3718Z" fill="#757575"/>
<path d="M24.5887 25.3718C26.1781 25.3718 27.4665 24.0834 27.4665 22.494C27.4665 20.9046 26.1781 19.6162 24.5887 19.6162C22.9993 19.6162 21.7109 20.9046 21.7109 22.494C21.7109 24.0834 22.9993 25.3718 24.5887 25.3718Z" fill="#757575"/>
<path d="M28.9295 18.1411C30.5189 18.1411 31.8073 16.8527 31.8073 15.2633C31.8073 13.6739 30.5189 12.3855 28.9295 12.3855C27.3401 12.3855 26.0518 13.6739 26.0518 15.2633C26.0518 16.8527 27.3401 18.1411 28.9295 18.1411Z" fill="#757575"/>
<path d="M18.0891 8.77015C18.0891 9.96217 17.1228 10.9285 15.9308 10.9285C14.7388 10.9285 13.7725 9.96217 13.7725 8.77015C13.7725 7.57813 14.7388 6.61182 15.9308 6.61182C17.1228 6.61182 18.0891 7.57813 18.0891 8.77015Z" fill="#757575"/>
<path d="M13.0226 38.3702C13.0226 40.3568 11.412 41.9674 9.42535 41.9674C7.43866 41.9674 5.82812 40.3568 5.82812 38.3702C5.82812 36.3835 7.43866 34.7729 9.42535 34.7729C11.412 34.7729 13.0226 36.3835 13.0226 38.3702Z" fill="#757575"/>
<path d="M31.0933 41.9674C33.08 41.9674 34.6905 40.3568 34.6905 38.3702C34.6905 36.3835 33.08 34.7729 31.0933 34.7729C29.1066 34.7729 27.4961 36.3835 27.4961 38.3702C27.4961 40.3568 29.1066 41.9674 31.0933 41.9674Z" fill="#757575"/>
<path fill-rule="evenodd" clip-rule="evenodd" d="M29.8076 29.6884C34.4601 26.5951 37.5263 21.3053 37.5263 15.2995C37.5263 9.2937 34.4601 4.00403 29.8076 0.910645H10.7118C6.05931 4.00403 2.99301 9.2937 2.99301 15.2995C2.99301 21.3053 6.05931 26.5951 10.7118 29.6884H8.74857C3.98051 29.6884 0.115234 33.5537 0.115234 38.3218C0.115234 43.0898 3.98051 46.9551 8.74857 46.9551H31.7708C36.5388 46.9551 40.4041 43.0898 40.4041 38.3218C40.4041 33.5537 36.5388 29.6884 31.7708 29.6884H29.8076ZM5.87079 15.2995C5.87079 10.5958 8.12567 6.41765 11.6246 3.78842H28.8947C32.3937 6.41765 34.6486 10.5958 34.6486 15.2995C34.6486 23.2462 28.2064 29.6884 20.2597 29.6884C12.313 29.6884 5.87079 23.2462 5.87079 15.2995ZM8.74857 32.5662C5.56986 32.5662 2.99301 35.1431 2.99301 38.3218C2.99301 41.5004 5.56986 44.0773 8.74857 44.0773H31.7708C34.9494 44.0773 37.5263 41.5004 37.5263 38.3218C37.5263 35.1431 34.9494 32.5662 31.7708 32.5662H8.74857Z" fill="#757575"/>
</svg>
