<svg width="45" height="46" viewBox="0 0 45 46" fill="none" xmlns="http://www.w3.org/2000/svg">
<path d="M40.5 34.7847C38.547 34.7847 36.897 36.2351 36.276 38.2462H9C5.691 38.2462 3 35.1412 3 31.3232C3 27.5051 5.691 24.4001 9 24.4001H36C40.962 24.4001 45 19.7409 45 14.0155C45 8.29008 40.962 3.63085 36 3.63085H8.724C8.103 1.6197 6.453 0.169312 4.5 0.169312C2.019 0.169312 0 2.49893 0 5.36162C0 8.22431 2.019 10.5539 4.5 10.5539C6.453 10.5539 8.103 9.10354 8.724 7.09239H36C39.309 7.09239 42 10.1974 42 14.0155C42 17.8335 39.309 20.9385 36 20.9385H9C4.038 20.9385 0 25.5978 0 31.3232C0 37.0485 4.038 41.7078 9 41.7078H36.276C36.897 43.7189 38.547 45.1693 40.5 45.1693C42.981 45.1693 45 42.8397 45 39.977C45 37.1143 42.981 34.7847 40.5 34.7847ZM4.5 7.09239C4.10218 7.09239 3.72064 6.91004 3.43934 6.58546C3.15804 6.26088 3 5.82065 3 5.36162C3 4.90259 3.15804 4.46236 3.43934 4.13778C3.72064 3.8132 4.10218 3.63085 4.5 3.63085C4.89782 3.63085 5.27936 3.8132 5.56066 4.13778C5.84196 4.46236 6 4.90259 6 5.36162C6 5.82065 5.84196 6.26088 5.56066 6.58546C5.27936 6.91004 4.89782 7.09239 4.5 7.09239ZM40.5 41.7078C40.1022 41.7078 39.7206 41.5254 39.4393 41.2008C39.158 40.8763 39 40.436 39 39.977C39 39.518 39.158 39.0777 39.4393 38.7532C39.7206 38.4286 40.1022 38.2462 40.5 38.2462C40.8978 38.2462 41.2794 38.4286 41.5607 38.7532C41.842 39.0777 42 39.518 42 39.977C42 40.436 41.842 40.8763 41.5607 41.2008C41.2794 41.5254 40.8978 41.7078 40.5 41.7078Z" fill="black"/>
</svg>
