<svg width="49" height="57" viewBox="0 0 49 57" fill="none" xmlns="http://www.w3.org/2000/svg">
<path d="M24.1818 0.669342C17.7684 0.669342 11.6176 3.17953 7.08263 7.64767C2.54765 12.1158 0 18.1759 0 24.4948C0 42.313 24.1818 56.6693 24.1818 56.6693C24.1818 56.6693 48.3636 39.9966 48.3636 24.4948C48.3636 18.1759 45.8159 12.1158 41.2809 7.64767C36.746 3.17953 30.5952 0.669342 24.1818 0.669342Z" fill="#34A853"/>
<path d="M38.4616 14.033H37.5667V11.7063C37.5667 11.4092 37.3269 11.1693 37.0298 11.1693C36.7327 11.1693 36.4929 11.4092 36.4929 11.7063V14.033H34.7031V11.7063C34.7031 11.4092 34.4632 11.1693 34.1661 11.1693C33.869 11.1693 33.6292 11.4092 33.6292 11.7063V14.033H32.7343C32.4372 14.033 32.1974 14.2728 32.1974 14.5699V18.1495C32.1974 19.8426 33.4395 21.2458 35.061 21.5035V34.6154C35.061 35.5031 34.338 36.2262 33.4502 36.2262C32.5625 36.2262 31.8394 35.5031 31.8394 34.6154V25.3085C31.8394 23.8266 30.6367 22.6239 29.1548 22.6239H27.544V13.1274C27.544 12.0463 26.667 11.1693 25.586 11.1693H12.6781C11.5971 11.1693 10.7201 12.0463 10.7201 13.1274V37.121H10.5304C9.94336 37.121 9.46729 37.5971 9.46729 38.1842V40.3426C9.46729 40.5395 9.62836 40.7006 9.82524 40.7006H28.4389C28.6357 40.7006 28.7968 40.5395 28.7968 40.3426V38.1842C28.7968 37.5971 28.3207 37.121 27.7337 37.121H27.544V23.6978H29.1548C30.0425 23.6978 30.7656 24.4208 30.7656 25.3085V34.6154C30.7656 36.0973 31.9683 37.3 33.4502 37.3C34.9322 37.3 36.1349 36.0973 36.1349 34.6154V21.5035C37.7564 21.2458 38.9985 19.8426 38.9985 18.1495V14.5699C38.9985 14.2728 38.7587 14.033 38.4616 14.033ZM11.794 13.1274C11.794 12.6405 12.1913 12.2432 12.6781 12.2432H25.586C26.0728 12.2432 26.4701 12.6405 26.4701 13.1274V36.9421H11.794V13.1274ZM37.9247 18.1495C37.9247 19.4309 36.8794 20.4762 35.598 20.4762C34.3165 20.4762 33.2713 19.4309 33.2713 18.1495V15.1068H37.9247V18.1495ZM36.1421 17.4335C36.1421 17.7306 35.8986 17.9705 35.6015 17.9705C35.3044 17.9705 35.061 17.7306 35.061 17.4335C35.061 17.1651 35.2579 16.9396 35.5228 16.9038C35.5729 16.8966 35.6302 16.8966 35.6803 16.9038C35.9452 16.9396 36.1421 17.1651 36.1421 17.4335ZM23.7533 27.3095C23.8105 27.4384 23.7855 27.5887 23.6924 27.6961L17.2492 34.8552C17.1812 34.9339 17.081 34.9733 16.9843 34.9733C16.9342 34.9733 16.8841 34.9626 16.834 34.9411C16.6908 34.8767 16.6085 34.7263 16.6264 34.5724L17.2922 29.246H14.833C14.6898 29.246 14.5646 29.1637 14.5073 29.0349C14.45 28.906 14.4751 28.7556 14.5681 28.6483L21.0113 21.4892C21.1151 21.371 21.2834 21.3388 21.4265 21.4033C21.5697 21.4677 21.6521 21.618 21.6342 21.772L20.9684 27.0983H23.4275C23.5707 27.0983 23.696 27.1806 23.7533 27.3095ZM23.4311 14.033H14.833C14.1422 14.033 13.5838 14.595 13.5838 15.2822V18.1495C13.5838 18.8403 14.1458 19.3987 14.833 19.3987H23.4275C24.1184 19.3987 24.6768 18.8367 24.6768 18.1495V15.2822C24.6804 14.595 24.1184 14.033 23.4311 14.033ZM23.6065 18.153C23.6065 18.2497 23.5277 18.3284 23.4311 18.3284H14.833C14.7364 18.3284 14.6576 18.2497 14.6576 18.153V15.2858C14.6576 15.1892 14.7364 15.1104 14.833 15.1104H23.4275C23.5242 15.1104 23.6029 15.1892 23.6029 15.2858V18.153H23.6065Z" fill="white"/>
</svg>
